#!OML:ASF E:\CV Data\Top Level 1\Subject 1\Session 1\player.ASF
:FULLY-SPECIFIED
:DEGREES
494
root -0.445481 17.2707 -5.5152 -81.71 83.5381 -85.7273
lowerback 8.01646 0.232186 8.70638
upperback -1.45602 1.3588 1.89171
thorax -5.90674 0.424816 -3.07633
lowerneck 4.97655 -17.7207 -16.0245
upperneck -35.2298 -19.2268 27.514
head -6.5049 -9.93791 12.7527
rclavicle 1.86858e-014 2.64384e-014
rhumerus 24.2839 -42.7322 -46.4637
rradius 65.5457
rwrist -66.2626
rhand -23.3576 1.95549
rfingers 7.12502
rthumb 3.09771 -28.0018
lclavicle 1.86858e-014 2.64384e-014
lhumerus -45.6448 32.2384 62.714
lradius 33.1024
lwrist -12.0398
lhand -21.5122 4.79339
lfingers 7.12502
lthumb 4.87982 34.7172
rfemur -14.5627 -6.44953 24.609
rtibia 36.7735
rfoot -21.9624 -13.9561
rtoes -3.12337
lfemur -10.2829 -3.26485 -2.88706
ltibia 31.5994
lfoot -17.1743 8.83302
ltoes -2.39992
495
root -0.446071 17.298 -5.47796 -84.8152 83.8395 -88.977
lowerback 7.96722 0.100182 9.10114
upperback -1.54545 1.23802 2.02667
thorax -5.98737 0.351113 -3.13816
lowerneck 4.84246 -17.6721 -15.9616
upperneck -34.8718 -19.2194 27.3329
head -6.40583 -9.93549 12.6233
rclavicle 5.44173e-015 -7.55382e-015
rhumerus 27.1942 -43.5839 -47.0806
rradius 64.135
rwrist -67.8845
rhand -23.203 1.26168
rfingers 7.12502
rthumb 3.24708 -28.6933
lclavicle 5.44173e-015 -7.55382e-015
lhumerus -45.1889 31.3057 62.6961
lradius 33.5719
lwrist -11.2911
lhand -21.5046 5.21857
lfingers 7.12502
lthumb 4.88712 35.1422
rfemur -14.4811 -6.47772 24.4609
rtibia 36.4144
rfoot -21.9177 -14.0469
rtoes -2.74633
lfemur -10.4552 -3.28881 -3.08786
ltibia 31.2934
lfoot -16.6683 8.60334
ltoes -2.34727
496
root -0.445536 17.3264 -5.44212 -88.0807 84.1031 -92.3871
lowerback 7.89978 -0.011448 9.48168
upperback -1.63637 1.14254 2.17541
thorax -6.058 0.29097 -3.17993
lowerneck 4.70784 -17.6516 -15.9338
upperneck -34.4962 -19.2517 27.1925
head -6.28132 -9.95434 12.5039
rclavicle 1.01877e-015 -3.97569e-015
rhumerus 30.0657 -44.4309 -47.7689
rradius 62.6457
rwrist -69.5496
rhand -22.8942 0.506754
rfingers 7.12502
rthumb 3.54526 -29.4435
lclavicle 1.01877e-015 -3.97569e-015
lhumerus -44.6713 30.3542 62.7314
lradius 34.0399
lwrist -9.70675
lhand -21.5708 5.77614
lfingers 7.12502
lthumb 4.82325 35.7012
rfemur -14.3761 -6.53527 24.3176
rtibia 36.0201
rfoot -21.8639 -14.0754
rtoes -2.32866
lfemur -10.6188 -3.25654 -3.26658
ltibia 30.9908
lfoot -16.1134 8.37972
ltoes -2.38447
497
root -0.444135 17.3561 -5.40848 -91.3044 84.3306 -95.7613
lowerback 7.81521 -0.100697 9.8562
upperback -1.73162 1.07593 2.3363
thorax -6.12127 0.245696 -3.20847
lowerneck 4.58341 -17.6499 -15.9403
upperneck -34.1146 -19.3123 27.084
head -6.14146 -9.98793 12.3963
rclavicle 9.24349e-015 -7.95139e-016
rhumerus 32.9189 -45.2611 -48.5702
rradius 61.0736
rwrist -70.9886
rhand -22.4795 -0.312271
rfingers 7.12502
rthumb 3.94572 -30.2555
lclavicle 9.24349e-015 -7.95139e-016
lhumerus -44.1269 29.4113 62.7923
lradius 34.5225
lwrist -7.4163
lhand -21.7199 6.3984
lfingers 7.12502
lthumb 4.67928 36.3267
rfemur -14.258 -6.62142 24.1766
rtibia 35.5893
rfoot -21.7911 -14.0357
rtoes -1.88251
lfemur -10.7775 -3.17757 -3.4285
ltibia 30.6932
lfoot -15.5069 8.16982
ltoes -2.44136
498
root -0.441812 17.3873 -5.3765 -94.2569 84.5351 -98.8629
lowerback 7.72329 -0.159168 10.21
upperback -1.82858 1.04821 2.50404
thorax -6.17825 0.220592 -3.2226
lowerneck 4.47938 -17.6658 -15.9639
upperneck -33.7432 -19.3991 26.9935
head -5.99846 -10.035 12.2979
rclavicle 2.68359e-015 4.53229e-014
rhumerus 35.7226 -46.0591 -49.4562
rradius 59.4266
rwrist -72.0445
rhand -21.9794 -1.15034
rfingers 7.12502
rthumb 4.42866 -31.084
lclavicle 2.68359e-015 4.53229e-014
lhumerus -43.5831 28.5115 62.8378
lradius 35.0355
lwrist -4.63229
lhand -21.9167 7.04117
lfingers 7.12502
lthumb 4.48925 36.9736
rfemur -14.123 -6.72418 24.0326
rtibia 35.125
rfoot -21.6934 -13.9381
rtoes -1.43
lfemur -10.9168 -3.05811 -3.58051
ltibia 30.3997
lfoot -14.864 7.95637
ltoes -2.46716
